<svg width="367" height="103" viewBox="0 0 367 103" fill="none" xmlns="http://www.w3.org/2000/svg">
<path d="M171.839 37.4013H195.123V45.346H162V2.56676H194.329V10.5115H171.839V19.8007H191.701V27.501H171.839V37.4013ZM202.335 45.346V0H211.868V45.346H202.335ZM250.736 2.56676H260.637V45.346H250.736V27.8065H231.302V45.346H221.402V2.56676H231.302V19.434H250.736V2.56676ZM291.499 46.0794C287.058 46.0794 283.055 45.122 279.49 43.2071C275.925 41.2922 273.134 38.6541 271.118 35.2929C269.101 31.9317 268.093 28.1528 268.093 23.9564C268.093 19.76 269.101 15.9811 271.118 12.6199C273.134 9.25866 275.925 6.6206 279.49 4.70572C283.055 2.79084 287.058 1.8334 291.499 1.8334C295.94 1.8334 299.933 2.79084 303.477 4.70572C307.022 6.6206 309.813 9.25866 311.85 12.6199C313.887 15.9811 314.905 19.76 314.905 23.9564C314.905 28.1528 313.887 31.9317 311.85 35.2929C309.813 38.6541 307.022 41.2922 303.477 43.2071C299.933 45.122 295.94 46.0794 291.499 46.0794ZM291.499 37.6458C294.025 37.6458 296.307 37.0652 298.344 35.904C300.381 34.7429 301.98 33.1234 303.141 31.0455C304.302 28.9677 304.883 26.6046 304.883 23.9564C304.883 21.3082 304.302 18.9451 303.141 16.8673C301.98 14.7894 300.381 13.1699 298.344 12.0088C296.307 10.8476 294.025 10.267 291.499 10.267C288.973 10.267 286.691 10.8476 284.654 12.0088C282.617 13.1699 281.018 14.7894 279.857 16.8673C278.696 18.9451 278.115 21.3082 278.115 23.9564C278.115 26.6046 278.696 28.9677 279.857 31.0455C281.018 33.1234 282.617 34.7429 284.654 35.904C286.691 37.0652 288.973 37.6458 291.499 37.6458ZM343.079 46.0794C338.638 46.0794 334.635 45.122 331.07 43.2071C327.505 41.2922 324.714 38.6541 322.697 35.2929C320.681 31.9317 319.672 28.1528 319.672 23.9564C319.672 19.76 320.681 15.9811 322.697 12.6199C324.714 9.25866 327.505 6.6206 331.07 4.70572C334.635 2.79084 338.638 1.8334 343.079 1.8334C347.52 1.8334 351.512 2.79084 355.057 4.70572C358.601 6.6206 361.392 9.25866 363.429 12.6199C365.466 15.9811 366.485 19.76 366.485 23.9564C366.485 28.1528 365.466 31.9317 363.429 35.2929C361.392 38.6541 358.601 41.2922 355.057 43.2071C351.512 45.122 347.52 46.0794 343.079 46.0794ZM343.079 37.6458C345.605 37.6458 347.886 37.0652 349.923 35.904C351.96 34.7429 353.56 33.1234 354.721 31.0455C355.882 28.9677 356.462 26.6046 356.462 23.9564C356.462 21.3082 355.882 18.9451 354.721 16.8673C353.56 14.7894 351.96 13.1699 349.923 12.0088C347.886 10.8476 345.605 10.267 343.079 10.267C340.553 10.267 338.271 10.8476 336.234 12.0088C334.197 13.1699 332.598 14.7894 331.437 16.8673C330.275 18.9451 329.695 21.3082 329.695 23.9564C329.695 26.6046 330.275 28.9677 331.437 31.0455C332.598 33.1234 334.197 34.7429 336.234 35.904C338.271 37.0652 340.553 37.6458 343.079 37.6458Z" fill="#14255C"/>
<path d="M189.302 92.5381C186.474 92.5381 183.739 92.1547 181.097 91.3879C178.456 90.6211 176.335 89.6243 174.733 88.3974L177.545 82.1607C179.078 83.2854 180.901 84.1885 183.014 84.8701C185.127 85.5517 187.24 85.8925 189.353 85.8925C191.705 85.8925 193.443 85.5432 194.568 84.8445C195.692 84.1459 196.255 83.2172 196.255 82.0585C196.255 81.2065 195.922 80.4993 195.258 79.937C194.593 79.3747 193.741 78.9231 192.702 78.5823C191.662 78.2415 190.256 77.8666 188.484 77.4576C185.758 76.8101 183.526 76.1626 181.788 75.5151C180.049 74.8676 178.558 73.8281 177.315 72.3967C176.071 70.9654 175.449 69.0569 175.449 66.6713C175.449 64.5924 176.011 62.7095 177.136 61.0225C178.26 59.3355 179.956 57.9979 182.222 57.0096C184.488 56.0212 187.257 55.5271 190.529 55.5271C192.813 55.5271 195.045 55.7997 197.226 56.345C199.407 56.8903 201.316 57.6741 202.951 58.6965L200.395 64.9843C197.09 63.1099 193.784 62.1727 190.478 62.1727C188.161 62.1727 186.448 62.5476 185.34 63.2973C184.233 64.0471 183.679 65.0354 183.679 66.2623C183.679 67.4892 184.318 68.4008 185.596 68.9972C186.874 69.5937 188.825 70.1815 191.449 70.7609C194.176 71.4084 196.408 72.0559 198.146 72.7035C199.884 73.351 201.375 74.3734 202.619 75.7707C203.863 77.168 204.485 79.0594 204.485 81.445C204.485 83.4898 203.914 85.3557 202.772 87.0427C201.631 88.7297 199.918 90.0673 197.635 91.0556C195.351 92.044 192.574 92.5381 189.302 92.5381ZM228.716 64.422H236.384L223.962 93.6116C222.701 96.7811 221.142 99.0133 219.284 100.308C217.427 101.603 215.186 102.251 212.562 102.251C211.131 102.251 209.716 102.029 208.319 101.586C206.922 101.143 205.78 100.53 204.894 99.7461L207.808 94.0717C208.421 94.617 209.128 95.043 209.929 95.3497C210.73 95.6564 211.523 95.8098 212.306 95.8098C213.397 95.8098 214.283 95.5457 214.965 95.0174C215.646 94.4892 216.26 93.6116 216.805 92.3848L216.907 92.1292L204.996 64.422H213.227L220.946 83.0809L228.716 64.422ZM248.499 92.3336C246.216 92.3336 243.984 92.0525 241.803 91.4902C239.622 90.9278 237.884 90.2207 236.588 89.3687L239.247 83.6432C240.474 84.427 241.956 85.066 243.694 85.5602C245.432 86.0544 247.136 86.3014 248.806 86.3014C252.18 86.3014 253.867 85.4665 253.867 83.7966C253.867 83.0127 253.407 82.4504 252.487 82.1096C251.567 81.7688 250.152 81.4791 248.244 81.2405C245.995 80.8997 244.137 80.5078 242.672 80.0648C241.206 79.6217 239.937 78.8379 238.863 77.7132C237.79 76.5886 237.253 74.9868 237.253 72.9079C237.253 71.1699 237.756 69.6277 238.761 68.2816C239.766 66.9354 241.232 65.8874 243.157 65.1377C245.083 64.3879 247.358 64.013 249.982 64.013C251.925 64.013 253.859 64.226 255.784 64.652C257.71 65.078 259.303 65.6659 260.564 66.4157L257.906 72.09C255.486 70.7268 252.845 70.0452 249.982 70.0452C248.278 70.0452 247 70.2838 246.148 70.7609C245.296 71.238 244.87 71.8515 244.87 72.6012C244.87 73.4532 245.33 74.0496 246.25 74.3904C247.17 74.7312 248.636 75.055 250.647 75.3617C252.896 75.7366 254.736 76.137 256.168 76.563C257.599 76.989 258.843 77.7644 259.899 78.889C260.956 80.0137 261.484 81.5813 261.484 83.5921C261.484 85.2961 260.973 86.8126 259.95 88.1418C258.928 89.4709 257.437 90.5018 255.477 91.2346C253.518 91.9673 251.192 92.3336 248.499 92.3336ZM281.983 84.9723L284.13 90.5955C283.346 91.1749 282.384 91.6094 281.242 91.8991C280.1 92.1888 278.899 92.3336 277.638 92.3336C274.366 92.3336 271.836 91.4987 270.047 89.8287C268.257 88.1588 267.363 85.705 267.363 82.4674V71.1699H263.12V65.0354H267.363V58.3387H275.338V65.0354H282.188V71.1699H275.338V82.3652C275.338 83.5239 275.636 84.4185 276.232 85.049C276.829 85.6795 277.672 85.9947 278.763 85.9947C280.024 85.9947 281.097 85.6539 281.983 84.9723ZM314.7 78.2756C314.7 78.3778 314.649 79.0935 314.547 80.4226H293.741C294.116 82.1266 295.002 83.4728 296.399 84.4611C297.796 85.4494 299.535 85.9436 301.613 85.9436C303.045 85.9436 304.314 85.7306 305.422 85.3046C306.529 84.8786 307.56 84.2055 308.515 83.2854L312.758 87.8862C310.168 90.8511 306.385 92.3336 301.409 92.3336C298.308 92.3336 295.564 91.7287 293.179 90.5189C290.793 89.309 288.953 87.6306 287.658 85.4835C286.363 83.3365 285.715 80.8997 285.715 78.1733C285.715 75.481 286.354 73.0528 287.632 70.8887C288.91 68.7246 290.665 67.0376 292.897 65.8278C295.13 64.6179 297.626 64.013 300.387 64.013C303.079 64.013 305.516 64.5924 307.697 65.7511C309.878 66.9098 311.59 68.5712 312.834 70.7353C314.078 72.8994 314.7 75.4128 314.7 78.2756ZM300.438 70.0452C298.631 70.0452 297.115 70.5564 295.888 71.5788C294.661 72.6012 293.911 73.9985 293.639 75.7707H307.186C306.913 74.0326 306.163 72.6438 304.936 71.6044C303.709 70.5649 302.21 70.0452 300.438 70.0452ZM355.239 64.013C358.681 64.013 361.416 65.0269 363.443 67.0547C365.471 69.0824 366.485 72.1241 366.485 76.1796V91.9247H358.51V77.4065C358.51 75.2254 358.059 73.5981 357.156 72.5245C356.252 71.451 354.966 70.9143 353.296 70.9143C351.422 70.9143 349.939 71.5192 348.849 72.729C347.758 73.9389 347.213 75.7366 347.213 78.1222V91.9247H339.238V77.4065C339.238 73.0783 337.5 70.9143 334.024 70.9143C332.183 70.9143 330.718 71.5192 329.627 72.729C328.537 73.9389 327.991 75.7366 327.991 78.1222V91.9247H320.017V64.422H327.634V67.5914C328.656 66.4327 329.908 65.5466 331.391 64.9332C332.873 64.3197 334.501 64.013 336.273 64.013C338.215 64.013 339.971 64.3964 341.538 65.1632C343.106 65.93 344.367 67.0462 345.321 68.5116C346.446 67.0802 347.869 65.9726 349.59 65.1888C351.311 64.4049 353.194 64.013 355.239 64.013Z" fill="#3658C7"/>
<path d="M62.45 18.6636V36.8327C74.0278 38.1512 83.0219 47.9744 83.0219 59.9035C83.0219 72.7337 72.6235 83.1321 59.7956 83.1321C47.8654 83.1321 38.0421 74.138 36.7236 62.5603H18.5546C19.9241 84.1468 37.8624 101.232 59.7956 101.232C82.6195 101.232 101.124 82.7297 101.124 59.9035C101.124 37.9715 84.04 20.0343 62.45 18.6636Z" fill="#3658C7"/>
<path d="M41.4057 4.44377V28.2915L13.2221 0.10907L0 13.3335L28.1825 41.5148H4.33238V60.2162H60.1071V4.44377H41.4057Z" fill="#14255C"/>
<path d="M116.683 54L83.7322 84.5682L69.7973 69.6973L60.5792 78.3352L83.0918 102.36L125.249 63.2862L116.683 54Z" fill="#2C3E50"/>
</svg>
